# xmcd
#
# Track frame offsets: 
#        150
#        17010
#        33520
#
# Disc length: 684 seconds
#
# Revision: 0
# Processed by: cddbd v1.5.1PL0 Copyright (c) Steve Scherf et al.
# Submitted via: ExactAudioCopy v0.95a3
#
DISCID=1a02aa03
DTITLE=Daryl Braithwaite - One Summer
DYEAR=1989
DGENRE=Pop
TTITLE0=One Summe
TTITLE1=Pretending To Care
TTITLE2=Up-Out
EXTD=
EXTT0=
EXTT1=
EXTT2=
PLAYORDER=
